<svg width="320" height="210" viewBox="0 0 320 210" xmlns="http://www.w3.org/2000/svg" role="img" aria-labelledby="title">
  <title id="title">Eleven SoM X1 placeholder</title>
  <defs>
    <linearGradient id="bg1" x1="0" y1="0" x2="1" y2="1">
      <stop stop-color="#0f172a" offset="0"/>
      <stop stop-color="#1e293b" offset="1"/>
    </linearGradient>
    <linearGradient id="acc1" x1="0" y1="0" x2="1" y2="0">
      <stop stop-color="#3A7BFF" offset="0"/>
      <stop stop-color="#5C8DFF" offset="1"/>
    </linearGradient>
  </defs>
  <rect x="8" y="20" width="304" height="170" rx="22" fill="url(#bg1)" stroke="#1f2937" stroke-width="2"/>
  <rect x="30" y="46" width="260" height="118" rx="12" fill="#020617" stroke="#111827" stroke-width="1.4"/>
  <rect x="44" y="64" width="84" height="84" rx="10" fill="#020617" stroke="#3b82f6" stroke-width="1.4"/>
  <rect x="56" y="76" width="60" height="60" rx="8" fill="url(#acc1)"/>
  <rect x="146" y="64" width="132" height="26" rx="6" fill="#020617" stroke="#111827" stroke-width="1.2"/>
  <rect x="146" y="98" width="132" height="14" rx="4" fill="#020617" stroke="#111827" stroke-width="1.2"/>
  <rect x="146" y="120" width="80" height="10" rx="3" fill="#0f172a"/>
  <rect x="146" y="138" width="52" height="10" rx="3" fill="#0f172a"/>
  <rect x="204" y="120" width="74" height="10" rx="3" fill="#111827"/>
  <rect x="210" y="138" width="68" height="10" rx="3" fill="#111827"/>
  <rect x="36" y="48" width="12" height="12" rx="4" fill="#22c55e"/>
</svg>
