<svg width="320" height="210" viewBox="0 0 320 210" xmlns="http://www.w3.org/2000/svg" role="img" aria-labelledby="title">
  <title id="title">Eleven SoM X2 placeholder</title>
  <defs>
    <linearGradient id="bg2" x1="0" y1="0" x2="1" y2="1">
      <stop stop-color="#020617" offset="0"/>
      <stop stop-color="#111827" offset="1"/>
    </linearGradient>
    <linearGradient id="acc2" x1="0" y1="0" x2="1" y2="1">
      <stop stop-color="#3A7BFF" offset="0"/>
      <stop stop-color="#22c55e" offset="1"/>
    </linearGradient>
  </defs>
  <rect x="8" y="20" width="304" height="170" rx="22" fill="url(#bg2)" stroke="#020617" stroke-width="2"/>
  <rect x="26" y="40" width="268" height="130" rx="16" fill="#020617" stroke="#1f2937" stroke-width="1.6"/>
  <rect x="44" y="60" width="110" height="86" rx="10" fill="#020617" stroke="#3b82f6" stroke-width="1.6"/>
  <rect x="56" y="72" width="86" height="62" rx="8" fill="url(#acc2)"/>
  <rect x="164" y="60" width="112" height="30" rx="8" fill="#020617" stroke="#111827" stroke-width="1.4"/>
  <rect x="164" y="98" width="112" height="16" rx="6" fill="#020617" stroke="#111827" stroke-width="1.4"/>
  <rect x="164" y="120" width="52" height="12" rx="4" fill="#0f172a"/>
  <rect x="224" y="120" width="52" height="12" rx="4" fill="#0f172a"/>
  <rect x="46" y="46" width="14" height="10" rx="3" fill="#22c55e"/>
  <rect x="66" y="46" width="14" height="10" rx="3" fill="#facc15"/>
  <rect x="86" y="46" width="14" height="10" rx="3" fill="#f97316"/>
</svg>
