<svg width="320" height="210" viewBox="0 0 320 210" xmlns="http://www.w3.org/2000/svg" role="img" aria-labelledby="title">
  <title id="title">Eleven SoM Pro placeholder</title>
  <defs>
    <linearGradient id="bg4" x1="0" y1="0" x2="1" y2="1">
      <stop stop-color="#020617" offset="0"/>
      <stop stop-color="#111827" offset="1"/>
    </linearGradient>
    <linearGradient id="acc4" x1="0" y1="0" x2="1" y2="1">
      <stop stop-color="#3A7BFF" offset="0"/>
      <stop stop-color="#5C8DFF" offset="0.55"/>
      <stop stop-color="#22c55e" offset="1"/>
    </linearGradient>
  </defs>
  <rect x="6" y="18" width="308" height="174" rx="26" fill="url(#bg4)" stroke="#020617" stroke-width="2"/>
  <rect x="26" y="40" width="268" height="132" rx="18" fill="#020617" stroke="#111827" stroke-width="1.8"/>
  <rect x="40" y="56" width="120" height="88" rx="12" fill="#020617" stroke="#3b82f6" stroke-width="1.6"/>
  <rect x="54" y="70" width="92" height="60" rx="10" fill="url(#acc4)"/>
  <rect x="170" y="56" width="108" height="28" rx="8" fill="#020617" stroke="#111827" stroke-width="1.4"/>
  <rect x="170" y="92" width="108" height="18" rx="6" fill="#020617" stroke="#111827" stroke-width="1.4"/>
  <rect x="170" y="118" width="52" height="12" rx="4" fill="#020617" stroke="#111827" stroke-width="1.3"/>
  <rect x="226" y="118" width="52" height="12" rx="4" fill="#020617" stroke="#111827" stroke-width="1.3"/>
  <rect x="40" y="42" width="16" height="10" rx="3" fill="#22c55e"/>
  <rect x="62" y="42" width="16" height="10" rx="3" fill="#f97316"/>
  <rect x="84" y="42" width="16" height="10" rx="3" fill="#e5e7eb"/>
  <circle cx="266" cy="52" r="4" fill="#22c55e"/>
  <circle cx="278" cy="52" r="4" fill="#e5e7eb"/>
</svg>
